<?xml version="1.0" encoding="utf-8"?>
<!-- Generator: Adobe Illustrator 21.0.0, SVG Export Plug-In . SVG Version: 6.00 Build 0)  -->
<svg version="1.1" id="Layer_1" xmlns="http://www.w3.org/2000/svg" xmlns:xlink="http://www.w3.org/1999/xlink" x="0px" y="0px"
	 viewBox="0 0 64 64" style="enable-background:new 0 0 64 64;" xml:space="preserve">
<style type="text/css">
	.st0{fill:#B3B3B3;}
	.st1{fill:none;stroke:#000000;stroke-width:0.25;stroke-miterlimit:10;}
</style>
<g>
	<path class="st0" d="M32,63.9C14.4,63.9,0.1,49.6,0.1,32S14.4,0.1,32,0.1S63.9,14.4,63.9,32S49.6,63.9,32,63.9z"/>
	<path d="M32,0.3c17.5,0,31.8,14.2,31.8,31.8S49.5,63.8,32,63.8S0.3,49.5,0.3,32S14.5,0.3,32,0.3 M32,0C14.3,0,0,14.3,0,32
		s14.3,32,32,32s32-14.3,32-32S49.7,0,32,0L32,0z"/>
</g>
<g>
	<line class="st1" x1="9" y1="10" x2="54" y2="55"/>
</g>
<line class="st1" x1="56" y1="11" x2="11" y2="56"/>
</svg>
